#Comment line ignore any data following # character 
#Hierarchical Translation and Rotation (.htr) file 
[Header]	
#Header keywords are followed by a single value 
FileType HTR		#Single word string
DataType HTRS		#Translation followed by rotation and scale data
FileVersion 1		#integer
NumSegments 29		#integer
NumFrames 4		#integer
DataFrameRate 30		#integer, data frame rate in this file
EulerRotationOrder ZYX
CalibrationUnits mm
RotationUnits Degrees
GlobalAxisofGravity Y
BoneLengthAxis Y
ScaleFactor 1.00
[SegmentNames&Hierarchy]
#CHILD	PARENT
MASTER GLOBAL
weapon MASTER
back_slider weapon
front_bottom weapon
front_middle_part1 weapon
front_middle_part2 weapon
front_middle_part3 weapon
front_middle_part4 weapon
front_top weapon
wing_bottom_left weapon
wing_bottom_right weapon
wing_top_left weapon
wing_top_right weapon
front_bottom_rumble_left front_bottom
front_bottom_rumble_right front_bottom
back_rotate_bottom_left front_middle_part3
back_rotate_bottom_right front_middle_part3
back_rotate_top_left front_middle_part3
back_rotate_top_right front_middle_part3
front_middle_part3_left front_middle_part3
front_middle_part3_right front_middle_part3
wing_bottom_left_buckets_1 wing_bottom_left
wing_bottom_left_buckets_2 wing_bottom_left
wing_bottom_left_buckets_3 wing_bottom_left
wing_bottom_right_buckets wing_bottom_right
wing_top_left_buckets wing_top_left
wing_top_left_buckets_1 wing_top_left
wing_top_left_buckets_3 wing_top_left
wing_top_right_buckets wing_top_right
[BasePosition]
#SegmentName Tx, Ty, Tz, Rx, Ry, Rz, BoneLength
MASTER 0.000000 0.000000 0.000000 -90.000000 0.000000 0.000000 10.000000 
weapon 0.000000 0.000000 0.000000 0.000000 0.000000 0.000000 10.000000 
back_slider 0.000000 0.000000 0.000000 0.000000 0.000000 0.000000 10.000000 
front_bottom 0.000000 0.000000 0.000000 0.000000 0.000000 0.000000 10.000000 
front_middle_part1 0.000000 0.000000 0.000000 0.000000 0.000000 0.000000 10.000000 
front_middle_part2 0.000000 0.000000 0.000000 0.000000 0.000000 0.000000 10.000000 
front_middle_part3 0.000000 0.000000 0.000000 0.000000 0.000000 0.000000 10.000000 
front_middle_part4 0.000000 0.000000 0.000000 0.000000 0.000000 0.000000 10.000000 
front_top 0.000000 0.000000 0.000000 0.000000 0.000000 0.000000 10.000000 
wing_bottom_left 0.000000 0.000000 0.000000 0.000000 0.000000 0.000000 10.000000 
wing_bottom_right 0.000000 0.000000 0.000000 0.000000 0.000000 0.000000 10.000000 
wing_top_left 0.000000 0.000000 0.000000 0.000000 0.000000 0.000000 10.000000 
wing_top_right 0.000000 0.000000 0.000000 0.000000 0.000000 0.000000 10.000000 
front_bottom_rumble_left 0.000000 0.000000 0.000000 0.000000 0.000000 0.000000 10.000000 
front_bottom_rumble_right 0.000000 0.000000 0.000000 0.000000 0.000000 0.000000 10.000000 
back_rotate_bottom_left 0.000000 0.000000 0.000000 0.000000 0.000000 0.000000 10.000000 
back_rotate_bottom_right 0.000000 0.000000 0.000000 0.000000 0.000000 0.000000 10.000000 
back_rotate_top_left 0.000000 0.000000 0.000000 0.000000 0.000000 0.000000 10.000000 
back_rotate_top_right 0.000000 0.000000 0.000000 0.000000 0.000000 0.000000 10.000000 
front_middle_part3_left 0.000000 0.000000 0.000000 0.000000 0.000000 0.000000 10.000000 
front_middle_part3_right 0.000000 0.000000 0.000000 0.000000 0.000000 0.000000 10.000000 
wing_bottom_left_buckets_1 0.000000 0.000000 0.000000 0.000000 0.000000 0.000000 10.000000 
wing_bottom_left_buckets_2 0.000000 0.000000 0.000000 0.000000 0.000000 0.000000 10.000000 
wing_bottom_left_buckets_3 0.000000 0.000000 0.000000 0.000000 0.000000 0.000000 10.000000 
wing_bottom_right_buckets 0.000000 0.000000 0.000000 0.000000 0.000000 0.000000 10.000000 
wing_top_left_buckets 0.000000 0.000000 0.000000 0.000000 0.000000 0.000000 10.000000 
wing_top_left_buckets_1 0.000000 0.000000 0.000000 0.000000 0.000000 0.000000 10.000000 
wing_top_left_buckets_3 0.000000 0.000000 0.000000 0.000000 0.000000 0.000000 10.000000 
wing_top_right_buckets 0.000000 0.000000 0.000000 0.000000 0.000000 0.000000 10.000000 
#Beginning of Data. Separated by tabs
#Fr	Tx	Ty	Tz	Rx	Ry	Rz	SF
[MASTER]
1 0.000000 0.000000 0.000000 0.000000 0.000000 -0.000020 0.000000
2 0.000000 0.000000 0.000000 0.000000 0.000000 -0.000020 0.000000
3 0.000000 0.000000 0.000000 0.000000 0.000000 -0.000020 0.000000
4 0.000000 0.000000 0.000000 0.000000 0.000000 -0.000020 0.000000
[weapon]
1 0.000000 -79.014671 86.001648 0.000000 -0.000000 0.000000 116.788712
2 0.000000 -79.014671 86.001648 0.000000 -0.000000 0.000000 116.788712
3 0.000000 -79.014671 86.001648 0.000000 -0.000000 0.000000 116.788712
4 0.000000 -79.014671 86.001648 0.000000 -0.000000 0.000000 116.788712
[back_slider]
1 0.000076 -5.362243 -85.992126 0.000000 -0.000000 0.000000 86.159149
2 0.000114 -33.974876 -85.991974 0.000000 -0.000000 0.000000 92.460327
3 0.000038 -87.112541 -85.992126 0.000000 -0.000000 0.000000 122.406044
4 0.000076 -115.725128 -85.991974 0.000000 -0.000000 0.000000 144.176712
[front_bottom]
1 0.000038 616.135498 -243.314819 9.999685 -0.001509 179.998199 662.438721
2 0.000038 606.270386 -249.298782 9.691916 -0.001514 179.998199 655.525452
3 -0.000038 587.949829 -260.411743 8.947604 -0.001525 179.998215 643.039063
4 0.000038 578.084900 -266.395630 8.064837 -0.001539 179.998230 636.513000
[front_middle_part1]
1 0.000000 519.313477 -85.992035 0.001539 -9.400739 0.001539 526.384949
2 0.000000 519.313477 -85.992035 0.001533 -9.887137 0.001533 526.384949
3 0.000000 519.313477 -85.992035 0.001517 -11.317626 0.001517 526.384949
4 0.000000 519.313477 -85.992035 0.001493 -13.641066 0.001493 526.384949
[front_middle_part2]
1 0.000000 477.040344 -85.992035 0.001660 0.001660 0.001660 484.728912
2 0.000000 477.040344 -85.992035 0.001667 0.486338 0.001667 484.728912
3 0.000000 477.040344 -85.992035 0.001688 1.915732 0.001688 484.728912
4 0.000000 477.040344 -85.992035 0.001725 4.241082 0.001725 484.728912
[front_middle_part3]
1 0.000000 -202.748367 -85.992126 0.000000 -0.000000 0.000000 220.230667
2 0.000000 -208.632568 -85.992126 0.000000 -0.000000 0.000000 225.659470
3 0.000076 -219.560349 -85.992126 0.000000 -0.000000 0.000000 235.799484
4 0.000000 -225.444595 -85.992279 0.000000 -0.000000 0.000000 241.288086
[front_middle_part4]
1 0.000000 -443.853668 -85.992035 0.000000 -0.000000 0.000000 452.106964
2 0.000000 -443.853668 -85.992035 0.000000 -0.000000 0.000000 452.106964
3 0.000000 -443.853668 -85.992035 0.000000 -0.000000 0.000000 452.106964
4 0.000000 -443.853668 -85.992035 0.000000 -0.000000 0.000000 452.106964
[front_top]
1 0.000000 523.450989 -157.672974 18.865540 0.001365 0.001909 546.682434
2 0.000000 523.450989 -157.672974 14.980260 0.001429 0.001862 546.682434
3 0.000000 523.450989 -157.672974 7.757470 0.001544 0.001768 546.682434
4 0.000000 523.450989 -157.672974 3.864975 0.001603 0.001715 546.682434
[wing_bottom_left]
1 -124.333710 235.191696 -217.766312 170.492065 54.439747 168.365540 343.796692
2 -124.333710 235.191696 -217.766312 168.624634 54.193909 166.066559 343.796692
3 -124.333710 235.191696 -217.766312 165.234024 53.615932 161.868988 343.796692
4 -124.333710 235.191696 -217.766312 163.461380 53.250935 159.665146 343.796692
[wing_bottom_right]
1 124.947586 235.191696 -217.766144 0.000000 54.999989 0.000000 344.019073
2 124.947586 235.191696 -217.766144 0.000000 54.999989 0.000000 344.019073
3 124.947586 235.191696 -217.766144 0.000000 54.999989 0.000000 344.019073
4 124.947586 235.191696 -217.766144 0.000000 54.999989 0.000000 344.019073
[wing_top_left]
1 -124.333710 235.191696 62.502743 -164.877777 -53.549988 161.428604 273.277527
2 -124.333710 235.191696 62.502743 -162.811081 -53.099827 158.852081 273.277527
3 -124.333710 235.191696 62.502743 -159.136444 -52.135857 154.230057 273.277527
4 -124.333710 235.191696 62.502743 -157.248306 -51.536911 151.828812 273.277527
[wing_top_right]
1 131.595657 235.191696 62.502682 -0.000000 -55.000015 0.000000 276.657074
2 131.595657 235.191696 62.502682 -0.000000 -55.000015 0.000000 276.657074
3 131.595657 235.191696 62.502682 -0.000000 -55.000015 0.000000 276.657074
4 131.595657 235.191696 62.502682 -0.000000 -55.000015 0.000000 276.657074
[front_bottom_rumble_left]
1 163.070297 263.743958 -16.969442 -129.881882 18.229330 75.387009 310.549133
2 163.070297 263.743958 -16.969442 -129.881882 18.229330 75.387009 310.549133
3 163.070297 263.743958 -16.969442 -129.881882 18.229330 75.387009 310.549133
4 163.070297 263.743958 -16.969442 -129.881882 18.229330 75.387009 310.549133
[front_bottom_rumble_right]
1 -163.070480 263.743835 -16.969442 -50.118145 18.229362 104.612976 310.549133
2 -163.070480 263.743835 -16.969442 -50.118145 18.229362 104.612976 310.549133
3 -163.070480 263.743835 -16.969442 -50.118145 18.229362 104.612976 310.549133
4 -163.070480 263.743835 -16.969442 -50.118145 18.229362 104.612976 310.549133
[back_rotate_bottom_left]
1 -38.067558 -195.870575 -38.097980 0.000000 -0.000000 0.000000 203.140045
2 -38.067558 -195.870575 -38.097980 0.000000 -0.000000 0.000000 203.140045
3 -38.067558 -195.870575 -38.097980 0.000000 -0.000000 0.000000 203.140045
4 -38.067558 -195.870575 -38.097980 0.000000 -0.000000 0.000000 203.140045
[back_rotate_bottom_right]
1 38.098610 -195.870575 -38.057903 0.000000 -0.000000 0.000000 203.138351
2 38.098610 -195.870575 -38.057903 0.000000 -0.000000 0.000000 203.138351
3 38.098610 -195.870575 -38.057903 0.000000 -0.000000 0.000000 203.138351
4 38.098610 -195.870575 -38.057903 0.000000 -0.000000 0.000000 203.138351
[back_rotate_top_left]
1 -38.074085 -195.870575 38.105885 0.000000 -0.000000 0.000000 203.142746
2 -38.074085 -195.870575 38.105885 0.000000 -0.000000 0.000000 203.142746
3 -38.074085 -195.870575 38.105885 0.000000 -0.000000 0.000000 203.142746
4 -38.074085 -195.870575 38.105885 0.000000 -0.000000 0.000000 203.142746
[back_rotate_top_right]
1 38.111603 -195.870575 38.079086 0.000000 -0.000000 0.000000 203.144760
2 38.111603 -195.870575 38.079086 0.000000 -0.000000 0.000000 203.144760
3 38.111603 -195.870575 38.079086 0.000000 -0.000000 0.000000 203.144760
4 38.111603 -195.870575 38.079086 0.000000 -0.000000 0.000000 203.144760
[front_middle_part3_left]
1 -90.176353 364.727234 0.463104 89.997192 -0.000893 -35.315495 375.709900
2 -90.176353 364.727234 0.463104 90.001442 0.000302 -23.644793 375.709900
3 -90.176353 364.727234 0.463104 90.000885 0.000015 -1.984119 375.709900
4 -90.176353 364.727234 0.463104 90.001221 -0.000104 9.686930 375.709900
[front_middle_part3_right]
1 91.046051 364.727081 0.046265 -90.000000 0.000003 180.000000 375.919159
2 91.046051 364.727081 0.046265 -90.000000 0.000003 180.000000 375.919159
3 91.046051 364.727081 0.046265 -90.000000 0.000003 180.000000 375.919159
4 91.046051 364.727081 0.046265 -90.000000 0.000003 180.000000 375.919159
[wing_bottom_left_buckets_1]
1 -47.610477 -288.454193 -9.889640 -0.000027 0.000020 -0.000035 292.524170
2 -47.610477 -288.454193 -9.889640 -0.000027 0.000020 -0.000035 292.524170
3 -47.610477 -288.454193 -9.889640 -0.000027 0.000020 -0.000035 292.524170
4 -47.610477 -288.454193 -9.889640 -0.000027 0.000020 -0.000035 292.524170
[wing_bottom_left_buckets_2]
1 -47.610565 -358.672546 -9.889595 -0.000031 -0.000003 -0.000031 361.953827
2 -47.610565 -358.672546 -9.889595 -0.000031 -0.000003 -0.000031 361.953827
3 -47.610565 -358.672546 -9.889595 -0.000031 -0.000003 -0.000031 361.953827
4 -47.610565 -358.672546 -9.889595 -0.000031 -0.000003 -0.000031 361.953827
[wing_bottom_left_buckets_3]
1 -47.610672 -428.104828 -9.889513 -0.000027 0.000020 -0.000035 430.857635
2 -47.610672 -428.104828 -9.889513 -0.000027 0.000020 -0.000035 430.857635
3 -47.610672 -428.104828 -9.889513 -0.000027 0.000020 -0.000035 430.857635
4 -47.610672 -428.104828 -9.889513 -0.000027 0.000020 -0.000035 430.857635
[wing_bottom_right_buckets]
1 -47.962635 -358.672546 9.386807 0.000027 0.000061 -0.000035 361.986908
2 -47.962635 -358.672546 9.386807 0.000027 0.000061 -0.000035 361.986908
3 -47.962635 -358.672546 9.386807 0.000027 0.000061 -0.000035 361.986908
4 -47.962635 -358.672546 9.386807 0.000027 0.000061 -0.000035 361.986908
[wing_top_left_buckets]
1 -45.484066 -358.586609 10.598831 0.000027 0.000000 -0.000031 361.615112
2 -45.484066 -358.586609 10.598831 0.000027 0.000000 -0.000031 361.615112
3 -45.484066 -358.586609 10.598831 0.000027 0.000000 -0.000031 361.615112
4 -45.484066 -358.586609 10.598831 0.000027 0.000000 -0.000031 361.615112
[wing_top_left_buckets_1]
1 -45.484005 -287.973450 10.598879 0.000027 0.000000 -0.000035 291.735931
2 -45.484005 -287.973450 10.598879 0.000027 0.000000 -0.000035 291.735931
3 -45.484005 -287.973450 10.598879 0.000027 0.000000 -0.000035 291.735931
4 -45.484005 -287.973450 10.598879 0.000027 0.000000 -0.000035 291.735931
[wing_top_left_buckets_3]
1 -45.484154 -426.601654 10.598794 0.000027 0.000000 -0.000035 429.150452
2 -45.484154 -426.601654 10.598794 0.000027 0.000000 -0.000035 429.150452
3 -45.484154 -426.601654 10.598794 0.000027 0.000000 -0.000035 429.150452
4 -45.484154 -426.601654 10.598794 0.000027 0.000000 -0.000035 429.150452
[wing_top_right_buckets]
1 -46.906902 -358.586700 -9.449236 -0.000044 -0.000038 -0.000035 361.765076
2 -46.906902 -358.586700 -9.449236 -0.000044 -0.000038 -0.000035 361.765076
3 -46.906902 -358.586700 -9.449236 -0.000044 -0.000038 -0.000035 361.765076
4 -46.906902 -358.586700 -9.449236 -0.000044 -0.000038 -0.000035 361.765076
